<svg width="438" height="25" viewBox="0 0 438 25" fill="none" xmlns="http://www.w3.org/2000/svg">
<path d="M3.86719 1.9375L7.42969 9.71875L10.9922 1.9375H14.8242L9.21094 12.7891V19H5.64844V12.7891L0.0234375 1.9375H3.86719ZM14.8594 12.7891V12.543C14.8594 11.6133 14.9922 10.7578 15.2578 9.97656C15.5234 9.1875 15.9102 8.50391 16.418 7.92578C16.9258 7.34766 17.5508 6.89844 18.293 6.57812C19.0352 6.25 19.8867 6.08594 20.8477 6.08594C21.8086 6.08594 22.6641 6.25 23.4141 6.57812C24.1641 6.89844 24.793 7.34766 25.3008 7.92578C25.8164 8.50391 26.207 9.1875 26.4727 9.97656C26.7383 10.7578 26.8711 11.6133 26.8711 12.543V12.7891C26.8711 13.7109 26.7383 14.5664 26.4727 15.3555C26.207 16.1367 25.8164 16.8203 25.3008 17.4062C24.793 17.9844 24.168 18.4336 23.4258 18.7539C22.6836 19.0742 21.832 19.2344 20.8711 19.2344C19.9102 19.2344 19.0547 19.0742 18.3047 18.7539C17.5625 18.4336 16.9336 17.9844 16.418 17.4062C15.9102 16.8203 15.5234 16.1367 15.2578 15.3555C14.9922 14.5664 14.8594 13.7109 14.8594 12.7891ZM18.2344 12.543V12.7891C18.2344 13.3203 18.2812 13.8164 18.375 14.2773C18.4688 14.7383 18.6172 15.1445 18.8203 15.4961C19.0312 15.8398 19.3047 16.1094 19.6406 16.3047C19.9766 16.5 20.3867 16.5977 20.8711 16.5977C21.3398 16.5977 21.7422 16.5 22.0781 16.3047C22.4141 16.1094 22.6836 15.8398 22.8867 15.4961C23.0898 15.1445 23.2383 14.7383 23.332 14.2773C23.4336 13.8164 23.4844 13.3203 23.4844 12.7891V12.543C23.4844 12.0273 23.4336 11.543 23.332 11.0898C23.2383 10.6289 23.0859 10.2227 22.875 9.87109C22.6719 9.51172 22.4023 9.23047 22.0664 9.02734C21.7305 8.82422 21.3242 8.72266 20.8477 8.72266C20.3711 8.72266 19.9648 8.82422 19.6289 9.02734C19.3008 9.23047 19.0312 9.51172 18.8203 9.87109C18.6172 10.2227 18.4688 10.6289 18.375 11.0898C18.2812 11.543 18.2344 12.0273 18.2344 12.543ZM36.4453 15.9648V6.32031H39.8203V19H36.6445L36.4453 15.9648ZM36.8203 13.3633L37.8164 13.3398C37.8164 14.1836 37.7188 14.9688 37.5234 15.6953C37.3281 16.4141 37.0352 17.0391 36.6445 17.5703C36.2539 18.0938 35.7617 18.5039 35.168 18.8008C34.5742 19.0898 33.875 19.2344 33.0703 19.2344C32.4531 19.2344 31.8828 19.1484 31.3594 18.9766C30.8438 18.7969 30.3984 18.5195 30.0234 18.1445C29.6562 17.7617 29.3672 17.2734 29.1562 16.6797C28.9531 16.0781 28.8516 15.3555 28.8516 14.5117V6.32031H32.2266V14.5352C32.2266 14.9102 32.2695 15.2266 32.3555 15.4844C32.4492 15.7422 32.5781 15.9531 32.7422 16.1172C32.9062 16.2812 33.0977 16.3984 33.3164 16.4688C33.543 16.5391 33.793 16.5742 34.0664 16.5742C34.7617 16.5742 35.3086 16.4336 35.707 16.1523C36.1133 15.8711 36.3984 15.4883 36.5625 15.0039C36.7344 14.5117 36.8203 13.9648 36.8203 13.3633ZM55.8633 16.2344V1H59.2617V19H56.2031L55.8633 16.2344ZM47.8477 12.8125V12.5664C47.8477 11.5977 47.957 10.7188 48.1758 9.92969C48.3945 9.13281 48.7148 8.44922 49.1367 7.87891C49.5586 7.30859 50.0781 6.86719 50.6953 6.55469C51.3125 6.24219 52.0156 6.08594 52.8047 6.08594C53.5469 6.08594 54.1953 6.24219 54.75 6.55469C55.3125 6.86719 55.7891 7.3125 56.1797 7.89062C56.5781 8.46094 56.8984 9.13672 57.1406 9.91797C57.3828 10.6914 57.5586 11.5391 57.668 12.4609V13C57.5586 13.8828 57.3828 14.7031 57.1406 15.4609C56.8984 16.2188 56.5781 16.8828 56.1797 17.4531C55.7891 18.0156 55.3125 18.4531 54.75 18.7656C54.1875 19.0781 53.5312 19.2344 52.7812 19.2344C51.9922 19.2344 51.2891 19.0742 50.6719 18.7539C50.0625 18.4336 49.5469 17.9844 49.125 17.4062C48.7109 16.8281 48.3945 16.1484 48.1758 15.3672C47.957 14.5859 47.8477 13.7344 47.8477 12.8125ZM51.2227 12.5664V12.8125C51.2227 13.3359 51.2617 13.8242 51.3398 14.2773C51.4258 14.7305 51.5625 15.1328 51.75 15.4844C51.9453 15.8281 52.1953 16.0977 52.5 16.293C52.8125 16.4805 53.1914 16.5742 53.6367 16.5742C54.2148 16.5742 54.6914 16.4453 55.0664 16.1875C55.4414 15.9219 55.7266 15.5586 55.9219 15.0977C56.125 14.6367 56.2422 14.1055 56.2734 13.5039V11.9688C56.25 11.4766 56.1797 11.0352 56.0625 10.6445C55.9531 10.2461 55.7891 9.90625 55.5703 9.625C55.3594 9.34375 55.0938 9.125 54.7734 8.96875C54.4609 8.8125 54.0898 8.73438 53.6602 8.73438C53.2227 8.73438 52.8477 8.83594 52.5352 9.03906C52.2227 9.23438 51.9688 9.50391 51.7734 9.84766C51.5859 10.1914 51.4453 10.5977 51.3516 11.0664C51.2656 11.5273 51.2227 12.0273 51.2227 12.5664ZM65.4609 6.32031V19H62.0742V6.32031H65.4609ZM61.8633 3.01562C61.8633 2.52344 62.0352 2.11719 62.3789 1.79688C62.7227 1.47656 63.1836 1.31641 63.7617 1.31641C64.332 1.31641 64.7891 1.47656 65.1328 1.79688C65.4844 2.11719 65.6602 2.52344 65.6602 3.01562C65.6602 3.50781 65.4844 3.91406 65.1328 4.23438C64.7891 4.55469 64.332 4.71484 63.7617 4.71484C63.1836 4.71484 62.7227 4.55469 62.3789 4.23438C62.0352 3.91406 61.8633 3.50781 61.8633 3.01562ZM75.7383 16.2344V1H79.1367V19H76.0781L75.7383 16.2344ZM67.7227 12.8125V12.5664C67.7227 11.5977 67.832 10.7188 68.0508 9.92969C68.2695 9.13281 68.5898 8.44922 69.0117 7.87891C69.4336 7.30859 69.9531 6.86719 70.5703 6.55469C71.1875 6.24219 71.8906 6.08594 72.6797 6.08594C73.4219 6.08594 74.0703 6.24219 74.625 6.55469C75.1875 6.86719 75.6641 7.3125 76.0547 7.89062C76.4531 8.46094 76.7734 9.13672 77.0156 9.91797C77.2578 10.6914 77.4336 11.5391 77.543 12.4609V13C77.4336 13.8828 77.2578 14.7031 77.0156 15.4609C76.7734 16.2188 76.4531 16.8828 76.0547 17.4531C75.6641 18.0156 75.1875 18.4531 74.625 18.7656C74.0625 19.0781 73.4062 19.2344 72.6562 19.2344C71.8672 19.2344 71.1641 19.0742 70.5469 18.7539C69.9375 18.4336 69.4219 17.9844 69 17.4062C68.5859 16.8281 68.2695 16.1484 68.0508 15.3672C67.832 14.5859 67.7227 13.7344 67.7227 12.8125ZM71.0977 12.5664V12.8125C71.0977 13.3359 71.1367 13.8242 71.2148 14.2773C71.3008 14.7305 71.4375 15.1328 71.625 15.4844C71.8203 15.8281 72.0703 16.0977 72.375 16.293C72.6875 16.4805 73.0664 16.5742 73.5117 16.5742C74.0898 16.5742 74.5664 16.4453 74.9414 16.1875C75.3164 15.9219 75.6016 15.5586 75.7969 15.0977C76 14.6367 76.1172 14.1055 76.1484 13.5039V11.9688C76.125 11.4766 76.0547 11.0352 75.9375 10.6445C75.8281 10.2461 75.6641 9.90625 75.4453 9.625C75.2344 9.34375 74.9688 9.125 74.6484 8.96875C74.3359 8.8125 73.9648 8.73438 73.5352 8.73438C73.0977 8.73438 72.7227 8.83594 72.4102 9.03906C72.0977 9.23438 71.8438 9.50391 71.6484 9.84766C71.4609 10.1914 71.3203 10.5977 71.2266 11.0664C71.1406 11.5273 71.0977 12.0273 71.0977 12.5664ZM85.0781 9.02734V19H81.7031V6.32031H84.8672L85.0781 9.02734ZM84.5859 12.2148H83.6719C83.6719 11.2773 83.793 10.4336 84.0352 9.68359C84.2773 8.92578 84.6172 8.28125 85.0547 7.75C85.4922 7.21094 86.0117 6.80078 86.6133 6.51953C87.2227 6.23047 87.9023 6.08594 88.6523 6.08594C89.2461 6.08594 89.7891 6.17188 90.2812 6.34375C90.7734 6.51562 91.1953 6.78906 91.5469 7.16406C91.9062 7.53906 92.1797 8.03516 92.3672 8.65234C92.5625 9.26953 92.6602 10.0234 92.6602 10.9141V19H89.2617V10.9023C89.2617 10.3398 89.1836 9.90234 89.0273 9.58984C88.8711 9.27734 88.6406 9.05859 88.3359 8.93359C88.0391 8.80078 87.6719 8.73438 87.2344 8.73438C86.7812 8.73438 86.3867 8.82422 86.0508 9.00391C85.7227 9.18359 85.4492 9.43359 85.2305 9.75391C85.0195 10.0664 84.8594 10.4336 84.75 10.8555C84.6406 11.2773 84.5859 11.7305 84.5859 12.2148ZM97.043 1V2.78125C97.043 3.28906 96.9453 3.8125 96.75 4.35156C96.5625 4.89062 96.3086 5.40234 95.9883 5.88672C95.668 6.36328 95.3164 6.76953 94.9336 7.10547L93.3516 6.19141C93.6406 5.73047 93.8867 5.23047 94.0898 4.69141C94.293 4.14453 94.3945 3.51172 94.3945 2.79297V1H97.043ZM105.68 6.32031V8.71094H98.2969V6.32031H105.68ZM100.125 3.19141H103.5V15.1797C103.5 15.5469 103.547 15.8281 103.641 16.0234C103.742 16.2188 103.891 16.3555 104.086 16.4336C104.281 16.5039 104.527 16.5391 104.824 16.5391C105.035 16.5391 105.223 16.5312 105.387 16.5156C105.559 16.4922 105.703 16.4688 105.82 16.4453L105.832 18.9297C105.543 19.0234 105.23 19.0977 104.895 19.1523C104.559 19.207 104.188 19.2344 103.781 19.2344C103.039 19.2344 102.391 19.1133 101.836 18.8711C101.289 18.6211 100.867 18.2227 100.57 17.6758C100.273 17.1289 100.125 16.4102 100.125 15.5195V3.19141ZM120.422 16.1406V10.4922C120.422 10.0859 120.355 9.73828 120.223 9.44922C120.09 9.15234 119.883 8.92188 119.602 8.75781C119.328 8.59375 118.973 8.51172 118.535 8.51172C118.16 8.51172 117.836 8.57812 117.562 8.71094C117.289 8.83594 117.078 9.01953 116.93 9.26172C116.781 9.49609 116.707 9.77344 116.707 10.0938H113.332C113.332 9.55469 113.457 9.04297 113.707 8.55859C113.957 8.07422 114.32 7.64844 114.797 7.28125C115.273 6.90625 115.84 6.61328 116.496 6.40234C117.16 6.19141 117.902 6.08594 118.723 6.08594C119.707 6.08594 120.582 6.25 121.348 6.57812C122.113 6.90625 122.715 7.39844 123.152 8.05469C123.598 8.71094 123.82 9.53125 123.82 10.5156V15.9414C123.82 16.6367 123.863 17.207 123.949 17.6523C124.035 18.0898 124.16 18.4727 124.324 18.8008V19H120.914C120.75 18.6562 120.625 18.2266 120.539 17.7109C120.461 17.1875 120.422 16.6641 120.422 16.1406ZM120.867 11.2773L120.891 13.1875H119.004C118.559 13.1875 118.172 13.2383 117.844 13.3398C117.516 13.4414 117.246 13.5859 117.035 13.7734C116.824 13.9531 116.668 14.1641 116.566 14.4062C116.473 14.6484 116.426 14.9141 116.426 15.2031C116.426 15.4922 116.492 15.7539 116.625 15.9883C116.758 16.2148 116.949 16.3945 117.199 16.5273C117.449 16.6523 117.742 16.7148 118.078 16.7148C118.586 16.7148 119.027 16.6133 119.402 16.4102C119.777 16.207 120.066 15.957 120.27 15.6602C120.48 15.3633 120.59 15.082 120.598 14.8164L121.488 16.2461C121.363 16.5664 121.191 16.8984 120.973 17.2422C120.762 17.5859 120.492 17.9102 120.164 18.2148C119.836 18.5117 119.441 18.7578 118.98 18.9531C118.52 19.1406 117.973 19.2344 117.34 19.2344C116.535 19.2344 115.805 19.0742 115.148 18.7539C114.5 18.4258 113.984 17.9766 113.602 17.4062C113.227 16.8281 113.039 16.1719 113.039 15.4375C113.039 14.7734 113.164 14.1836 113.414 13.668C113.664 13.1523 114.031 12.7188 114.516 12.3672C115.008 12.0078 115.621 11.7383 116.355 11.5586C117.09 11.3711 117.941 11.2773 118.91 11.2773H120.867ZM133.91 16.2344V1H137.309V19H134.25L133.91 16.2344ZM125.895 12.8125V12.5664C125.895 11.5977 126.004 10.7188 126.223 9.92969C126.441 9.13281 126.762 8.44922 127.184 7.87891C127.605 7.30859 128.125 6.86719 128.742 6.55469C129.359 6.24219 130.062 6.08594 130.852 6.08594C131.594 6.08594 132.242 6.24219 132.797 6.55469C133.359 6.86719 133.836 7.3125 134.227 7.89062C134.625 8.46094 134.945 9.13672 135.188 9.91797C135.43 10.6914 135.605 11.5391 135.715 12.4609V13C135.605 13.8828 135.43 14.7031 135.188 15.4609C134.945 16.2188 134.625 16.8828 134.227 17.4531C133.836 18.0156 133.359 18.4531 132.797 18.7656C132.234 19.0781 131.578 19.2344 130.828 19.2344C130.039 19.2344 129.336 19.0742 128.719 18.7539C128.109 18.4336 127.594 17.9844 127.172 17.4062C126.758 16.8281 126.441 16.1484 126.223 15.3672C126.004 14.5859 125.895 13.7344 125.895 12.8125ZM129.27 12.5664V12.8125C129.27 13.3359 129.309 13.8242 129.387 14.2773C129.473 14.7305 129.609 15.1328 129.797 15.4844C129.992 15.8281 130.242 16.0977 130.547 16.293C130.859 16.4805 131.238 16.5742 131.684 16.5742C132.262 16.5742 132.738 16.4453 133.113 16.1875C133.488 15.9219 133.773 15.5586 133.969 15.0977C134.172 14.6367 134.289 14.1055 134.32 13.5039V11.9688C134.297 11.4766 134.227 11.0352 134.109 10.6445C134 10.2461 133.836 9.90625 133.617 9.625C133.406 9.34375 133.141 9.125 132.82 8.96875C132.508 8.8125 132.137 8.73438 131.707 8.73438C131.27 8.73438 130.895 8.83594 130.582 9.03906C130.27 9.23438 130.016 9.50391 129.82 9.84766C129.633 10.1914 129.492 10.5977 129.398 11.0664C129.312 11.5273 129.27 12.0273 129.27 12.5664ZM147.434 16.2344V1H150.832V19H147.773L147.434 16.2344ZM139.418 12.8125V12.5664C139.418 11.5977 139.527 10.7188 139.746 9.92969C139.965 9.13281 140.285 8.44922 140.707 7.87891C141.129 7.30859 141.648 6.86719 142.266 6.55469C142.883 6.24219 143.586 6.08594 144.375 6.08594C145.117 6.08594 145.766 6.24219 146.32 6.55469C146.883 6.86719 147.359 7.3125 147.75 7.89062C148.148 8.46094 148.469 9.13672 148.711 9.91797C148.953 10.6914 149.129 11.5391 149.238 12.4609V13C149.129 13.8828 148.953 14.7031 148.711 15.4609C148.469 16.2188 148.148 16.8828 147.75 17.4531C147.359 18.0156 146.883 18.4531 146.32 18.7656C145.758 19.0781 145.102 19.2344 144.352 19.2344C143.562 19.2344 142.859 19.0742 142.242 18.7539C141.633 18.4336 141.117 17.9844 140.695 17.4062C140.281 16.8281 139.965 16.1484 139.746 15.3672C139.527 14.5859 139.418 13.7344 139.418 12.8125ZM142.793 12.5664V12.8125C142.793 13.3359 142.832 13.8242 142.91 14.2773C142.996 14.7305 143.133 15.1328 143.32 15.4844C143.516 15.8281 143.766 16.0977 144.07 16.293C144.383 16.4805 144.762 16.5742 145.207 16.5742C145.785 16.5742 146.262 16.4453 146.637 16.1875C147.012 15.9219 147.297 15.5586 147.492 15.0977C147.695 14.6367 147.812 14.1055 147.844 13.5039V11.9688C147.82 11.4766 147.75 11.0352 147.633 10.6445C147.523 10.2461 147.359 9.90625 147.141 9.625C146.93 9.34375 146.664 9.125 146.344 8.96875C146.031 8.8125 145.66 8.73438 145.23 8.73438C144.793 8.73438 144.418 8.83594 144.105 9.03906C143.793 9.23438 143.539 9.50391 143.344 9.84766C143.156 10.1914 143.016 10.5977 142.922 11.0664C142.836 11.5273 142.793 12.0273 142.793 12.5664ZM166.289 16.1406V10.4922C166.289 10.0859 166.223 9.73828 166.09 9.44922C165.957 9.15234 165.75 8.92188 165.469 8.75781C165.195 8.59375 164.84 8.51172 164.402 8.51172C164.027 8.51172 163.703 8.57812 163.43 8.71094C163.156 8.83594 162.945 9.01953 162.797 9.26172C162.648 9.49609 162.574 9.77344 162.574 10.0938H159.199C159.199 9.55469 159.324 9.04297 159.574 8.55859C159.824 8.07422 160.188 7.64844 160.664 7.28125C161.141 6.90625 161.707 6.61328 162.363 6.40234C163.027 6.19141 163.77 6.08594 164.59 6.08594C165.574 6.08594 166.449 6.25 167.215 6.57812C167.98 6.90625 168.582 7.39844 169.02 8.05469C169.465 8.71094 169.688 9.53125 169.688 10.5156V15.9414C169.688 16.6367 169.73 17.207 169.816 17.6523C169.902 18.0898 170.027 18.4727 170.191 18.8008V19H166.781C166.617 18.6562 166.492 18.2266 166.406 17.7109C166.328 17.1875 166.289 16.6641 166.289 16.1406ZM166.734 11.2773L166.758 13.1875H164.871C164.426 13.1875 164.039 13.2383 163.711 13.3398C163.383 13.4414 163.113 13.5859 162.902 13.7734C162.691 13.9531 162.535 14.1641 162.434 14.4062C162.34 14.6484 162.293 14.9141 162.293 15.2031C162.293 15.4922 162.359 15.7539 162.492 15.9883C162.625 16.2148 162.816 16.3945 163.066 16.5273C163.316 16.6523 163.609 16.7148 163.945 16.7148C164.453 16.7148 164.895 16.6133 165.27 16.4102C165.645 16.207 165.934 15.957 166.137 15.6602C166.348 15.3633 166.457 15.082 166.465 14.8164L167.355 16.2461C167.23 16.5664 167.059 16.8984 166.84 17.2422C166.629 17.5859 166.359 17.9102 166.031 18.2148C165.703 18.5117 165.309 18.7578 164.848 18.9531C164.387 19.1406 163.84 19.2344 163.207 19.2344C162.402 19.2344 161.672 19.0742 161.016 18.7539C160.367 18.4258 159.852 17.9766 159.469 17.4062C159.094 16.8281 158.906 16.1719 158.906 15.4375C158.906 14.7734 159.031 14.1836 159.281 13.668C159.531 13.1523 159.898 12.7188 160.383 12.3672C160.875 12.0078 161.488 11.7383 162.223 11.5586C162.957 11.3711 163.809 11.2773 164.777 11.2773H166.734ZM175.594 9.02734V19H172.219V6.32031H175.383L175.594 9.02734ZM175.102 12.2148H174.188C174.188 11.2773 174.309 10.4336 174.551 9.68359C174.793 8.92578 175.133 8.28125 175.57 7.75C176.008 7.21094 176.527 6.80078 177.129 6.51953C177.738 6.23047 178.418 6.08594 179.168 6.08594C179.762 6.08594 180.305 6.17188 180.797 6.34375C181.289 6.51562 181.711 6.78906 182.062 7.16406C182.422 7.53906 182.695 8.03516 182.883 8.65234C183.078 9.26953 183.176 10.0234 183.176 10.9141V19H179.777V10.9023C179.777 10.3398 179.699 9.90234 179.543 9.58984C179.387 9.27734 179.156 9.05859 178.852 8.93359C178.555 8.80078 178.188 8.73438 177.75 8.73438C177.297 8.73438 176.902 8.82422 176.566 9.00391C176.238 9.18359 175.965 9.43359 175.746 9.75391C175.535 10.0664 175.375 10.4336 175.266 10.8555C175.156 11.2773 175.102 11.7305 175.102 12.2148ZM189.504 17.5703L192.867 6.32031H196.488L191.391 20.9102C191.281 21.2305 191.133 21.5742 190.945 21.9414C190.766 22.3086 190.52 22.6562 190.207 22.9844C189.902 23.3203 189.516 23.5938 189.047 23.8047C188.586 24.0156 188.02 24.1211 187.348 24.1211C187.027 24.1211 186.766 24.1016 186.562 24.0625C186.359 24.0234 186.117 23.9688 185.836 23.8984V21.4258C185.922 21.4258 186.012 21.4258 186.105 21.4258C186.199 21.4336 186.289 21.4375 186.375 21.4375C186.82 21.4375 187.184 21.3867 187.465 21.2852C187.746 21.1836 187.973 21.0273 188.145 20.8164C188.316 20.6133 188.453 20.3477 188.555 20.0195L189.504 17.5703ZM188.098 6.32031L190.852 15.5078L191.332 19.082L189.035 19.3281L184.477 6.32031H188.098ZM210.023 6.32031V8.71094H202.641V6.32031H210.023ZM204.469 3.19141H207.844V15.1797C207.844 15.5469 207.891 15.8281 207.984 16.0234C208.086 16.2188 208.234 16.3555 208.43 16.4336C208.625 16.5039 208.871 16.5391 209.168 16.5391C209.379 16.5391 209.566 16.5312 209.73 16.5156C209.902 16.4922 210.047 16.4688 210.164 16.4453L210.176 18.9297C209.887 19.0234 209.574 19.0977 209.238 19.1523C208.902 19.207 208.531 19.2344 208.125 19.2344C207.383 19.2344 206.734 19.1133 206.18 18.8711C205.633 18.6211 205.211 18.2227 204.914 17.6758C204.617 17.1289 204.469 16.4102 204.469 15.5195V3.19141ZM218.789 16.1406V10.4922C218.789 10.0859 218.723 9.73828 218.59 9.44922C218.457 9.15234 218.25 8.92188 217.969 8.75781C217.695 8.59375 217.34 8.51172 216.902 8.51172C216.527 8.51172 216.203 8.57812 215.93 8.71094C215.656 8.83594 215.445 9.01953 215.297 9.26172C215.148 9.49609 215.074 9.77344 215.074 10.0938H211.699C211.699 9.55469 211.824 9.04297 212.074 8.55859C212.324 8.07422 212.688 7.64844 213.164 7.28125C213.641 6.90625 214.207 6.61328 214.863 6.40234C215.527 6.19141 216.27 6.08594 217.09 6.08594C218.074 6.08594 218.949 6.25 219.715 6.57812C220.48 6.90625 221.082 7.39844 221.52 8.05469C221.965 8.71094 222.188 9.53125 222.188 10.5156V15.9414C222.188 16.6367 222.23 17.207 222.316 17.6523C222.402 18.0898 222.527 18.4727 222.691 18.8008V19H219.281C219.117 18.6562 218.992 18.2266 218.906 17.7109C218.828 17.1875 218.789 16.6641 218.789 16.1406ZM219.234 11.2773L219.258 13.1875H217.371C216.926 13.1875 216.539 13.2383 216.211 13.3398C215.883 13.4414 215.613 13.5859 215.402 13.7734C215.191 13.9531 215.035 14.1641 214.934 14.4062C214.84 14.6484 214.793 14.9141 214.793 15.2031C214.793 15.4922 214.859 15.7539 214.992 15.9883C215.125 16.2148 215.316 16.3945 215.566 16.5273C215.816 16.6523 216.109 16.7148 216.445 16.7148C216.953 16.7148 217.395 16.6133 217.77 16.4102C218.145 16.207 218.434 15.957 218.637 15.6602C218.848 15.3633 218.957 15.082 218.965 14.8164L219.855 16.2461C219.73 16.5664 219.559 16.8984 219.34 17.2422C219.129 17.5859 218.859 17.9102 218.531 18.2148C218.203 18.5117 217.809 18.7578 217.348 18.9531C216.887 19.1406 216.34 19.2344 215.707 19.2344C214.902 19.2344 214.172 19.0742 213.516 18.7539C212.867 18.4258 212.352 17.9766 211.969 17.4062C211.594 16.8281 211.406 16.1719 211.406 15.4375C211.406 14.7734 211.531 14.1836 211.781 13.668C212.031 13.1523 212.398 12.7188 212.883 12.3672C213.375 12.0078 213.988 11.7383 214.723 11.5586C215.457 11.3711 216.309 11.2773 217.277 11.2773H219.234ZM231.645 15.4961C231.645 15.2539 231.574 15.0352 231.434 14.8398C231.293 14.6445 231.031 14.4648 230.648 14.3008C230.273 14.1289 229.73 13.9727 229.02 13.832C228.379 13.6914 227.781 13.5156 227.227 13.3047C226.68 13.0859 226.203 12.8242 225.797 12.5195C225.398 12.2148 225.086 11.8555 224.859 11.4414C224.633 11.0195 224.52 10.5391 224.52 10C224.52 9.46875 224.633 8.96875 224.859 8.5C225.094 8.03125 225.426 7.61719 225.855 7.25781C226.293 6.89062 226.824 6.60547 227.449 6.40234C228.082 6.19141 228.793 6.08594 229.582 6.08594C230.684 6.08594 231.629 6.26172 232.418 6.61328C233.215 6.96484 233.824 7.44922 234.246 8.06641C234.676 8.67578 234.891 9.37109 234.891 10.1523H231.516C231.516 9.82422 231.445 9.53125 231.305 9.27344C231.172 9.00781 230.961 8.80078 230.672 8.65234C230.391 8.49609 230.023 8.41797 229.57 8.41797C229.195 8.41797 228.871 8.48438 228.598 8.61719C228.324 8.74219 228.113 8.91406 227.965 9.13281C227.824 9.34375 227.754 9.57812 227.754 9.83594C227.754 10.0312 227.793 10.207 227.871 10.3633C227.957 10.5117 228.094 10.6484 228.281 10.7734C228.469 10.8984 228.711 11.0156 229.008 11.125C229.312 11.2266 229.688 11.3203 230.133 11.4062C231.047 11.5938 231.863 11.8398 232.582 12.1445C233.301 12.4414 233.871 12.8477 234.293 13.3633C234.715 13.8711 234.926 14.5391 234.926 15.3672C234.926 15.9297 234.801 16.4453 234.551 16.9141C234.301 17.3828 233.941 17.793 233.473 18.1445C233.004 18.4883 232.441 18.7578 231.785 18.9531C231.137 19.1406 230.406 19.2344 229.594 19.2344C228.414 19.2344 227.414 19.0234 226.594 18.6016C225.781 18.1797 225.164 17.6445 224.742 16.9961C224.328 16.3398 224.121 15.668 224.121 14.9805H227.32C227.336 15.4414 227.453 15.8125 227.672 16.0938C227.898 16.375 228.184 16.5781 228.527 16.7031C228.879 16.8281 229.258 16.8906 229.664 16.8906C230.102 16.8906 230.465 16.832 230.754 16.7148C231.043 16.5898 231.262 16.4258 231.41 16.2227C231.566 16.0117 231.645 15.7695 231.645 15.4961ZM240.492 0.988281V19H237.117V0.988281H240.492ZM248.484 6.32031L242.977 12.6016L240.023 15.5898L238.793 13.1523L241.137 10.1758L244.43 6.32031H248.484ZM244.98 19L241.23 13.1406L243.562 11.1016L248.871 19H244.98ZM250.102 17.3711C250.102 16.8711 250.273 16.4531 250.617 16.1172C250.969 15.7812 251.434 15.6133 252.012 15.6133C252.59 15.6133 253.051 15.7812 253.395 16.1172C253.746 16.4531 253.922 16.8711 253.922 17.3711C253.922 17.8711 253.746 18.2891 253.395 18.625C253.051 18.9609 252.59 19.1289 252.012 19.1289C251.434 19.1289 250.969 18.9609 250.617 18.625C250.273 18.2891 250.102 17.8711 250.102 17.3711ZM269.73 12.918H265.383V10.1758H269.73C270.402 10.1758 270.949 10.0664 271.371 9.84766C271.793 9.62109 272.102 9.30859 272.297 8.91016C272.492 8.51172 272.59 8.0625 272.59 7.5625C272.59 7.05469 272.492 6.58203 272.297 6.14453C272.102 5.70703 271.793 5.35547 271.371 5.08984C270.949 4.82422 270.402 4.69141 269.73 4.69141H266.602V19H263.086V1.9375H269.73C271.066 1.9375 272.211 2.17969 273.164 2.66406C274.125 3.14063 274.859 3.80078 275.367 4.64453C275.875 5.48828 276.129 6.45312 276.129 7.53906C276.129 8.64062 275.875 9.59375 275.367 10.3984C274.859 11.2031 274.125 11.8242 273.164 12.2617C272.211 12.6992 271.066 12.918 269.73 12.918ZM281.906 1V19H278.52V1H281.906ZM290.531 19.2344C289.547 19.2344 288.664 19.0781 287.883 18.7656C287.102 18.4453 286.438 18.0039 285.891 17.4414C285.352 16.8789 284.938 16.2266 284.648 15.4844C284.359 14.7344 284.215 13.9375 284.215 13.0938V12.625C284.215 11.6641 284.352 10.7852 284.625 9.98828C284.898 9.19141 285.289 8.5 285.797 7.91406C286.312 7.32812 286.938 6.87891 287.672 6.56641C288.406 6.24609 289.234 6.08594 290.156 6.08594C291.055 6.08594 291.852 6.23438 292.547 6.53125C293.242 6.82812 293.824 7.25 294.293 7.79688C294.77 8.34375 295.129 9 295.371 9.76562C295.613 10.5234 295.734 11.3672 295.734 12.2969V13.7031H285.656V11.4531H292.418V11.1953C292.418 10.7266 292.332 10.3086 292.16 9.94141C291.996 9.56641 291.746 9.26953 291.41 9.05078C291.074 8.83203 290.645 8.72266 290.121 8.72266C289.676 8.72266 289.293 8.82031 288.973 9.01562C288.652 9.21094 288.391 9.48438 288.188 9.83594C287.992 10.1875 287.844 10.6016 287.742 11.0781C287.648 11.5469 287.602 12.0625 287.602 12.625V13.0938C287.602 13.6016 287.672 14.0703 287.812 14.5C287.961 14.9297 288.168 15.3008 288.434 15.6133C288.707 15.9258 289.035 16.168 289.418 16.3398C289.809 16.5117 290.25 16.5977 290.742 16.5977C291.352 16.5977 291.918 16.4805 292.441 16.2461C292.973 16.0039 293.43 15.6406 293.812 15.1562L295.453 16.9375C295.188 17.3203 294.824 17.6875 294.363 18.0391C293.91 18.3906 293.363 18.6797 292.723 18.9062C292.082 19.125 291.352 19.2344 290.531 19.2344ZM304.5 16.1406V10.4922C304.5 10.0859 304.434 9.73828 304.301 9.44922C304.168 9.15234 303.961 8.92188 303.68 8.75781C303.406 8.59375 303.051 8.51172 302.613 8.51172C302.238 8.51172 301.914 8.57812 301.641 8.71094C301.367 8.83594 301.156 9.01953 301.008 9.26172C300.859 9.49609 300.785 9.77344 300.785 10.0938H297.41C297.41 9.55469 297.535 9.04297 297.785 8.55859C298.035 8.07422 298.398 7.64844 298.875 7.28125C299.352 6.90625 299.918 6.61328 300.574 6.40234C301.238 6.19141 301.98 6.08594 302.801 6.08594C303.785 6.08594 304.66 6.25 305.426 6.57812C306.191 6.90625 306.793 7.39844 307.23 8.05469C307.676 8.71094 307.898 9.53125 307.898 10.5156V15.9414C307.898 16.6367 307.941 17.207 308.027 17.6523C308.113 18.0898 308.238 18.4727 308.402 18.8008V19H304.992C304.828 18.6562 304.703 18.2266 304.617 17.7109C304.539 17.1875 304.5 16.6641 304.5 16.1406ZM304.945 11.2773L304.969 13.1875H303.082C302.637 13.1875 302.25 13.2383 301.922 13.3398C301.594 13.4414 301.324 13.5859 301.113 13.7734C300.902 13.9531 300.746 14.1641 300.645 14.4062C300.551 14.6484 300.504 14.9141 300.504 15.2031C300.504 15.4922 300.57 15.7539 300.703 15.9883C300.836 16.2148 301.027 16.3945 301.277 16.5273C301.527 16.6523 301.82 16.7148 302.156 16.7148C302.664 16.7148 303.105 16.6133 303.48 16.4102C303.855 16.207 304.145 15.957 304.348 15.6602C304.559 15.3633 304.668 15.082 304.676 14.8164L305.566 16.2461C305.441 16.5664 305.27 16.8984 305.051 17.2422C304.84 17.5859 304.57 17.9102 304.242 18.2148C303.914 18.5117 303.52 18.7578 303.059 18.9531C302.598 19.1406 302.051 19.2344 301.418 19.2344C300.613 19.2344 299.883 19.0742 299.227 18.7539C298.578 18.4258 298.062 17.9766 297.68 17.4062C297.305 16.8281 297.117 16.1719 297.117 15.4375C297.117 14.7734 297.242 14.1836 297.492 13.668C297.742 13.1523 298.109 12.7188 298.594 12.3672C299.086 12.0078 299.699 11.7383 300.434 11.5586C301.168 11.3711 302.02 11.2773 302.988 11.2773H304.945ZM317.355 15.4961C317.355 15.2539 317.285 15.0352 317.145 14.8398C317.004 14.6445 316.742 14.4648 316.359 14.3008C315.984 14.1289 315.441 13.9727 314.73 13.832C314.09 13.6914 313.492 13.5156 312.938 13.3047C312.391 13.0859 311.914 12.8242 311.508 12.5195C311.109 12.2148 310.797 11.8555 310.57 11.4414C310.344 11.0195 310.23 10.5391 310.23 10C310.23 9.46875 310.344 8.96875 310.57 8.5C310.805 8.03125 311.137 7.61719 311.566 7.25781C312.004 6.89062 312.535 6.60547 313.16 6.40234C313.793 6.19141 314.504 6.08594 315.293 6.08594C316.395 6.08594 317.34 6.26172 318.129 6.61328C318.926 6.96484 319.535 7.44922 319.957 8.06641C320.387 8.67578 320.602 9.37109 320.602 10.1523H317.227C317.227 9.82422 317.156 9.53125 317.016 9.27344C316.883 9.00781 316.672 8.80078 316.383 8.65234C316.102 8.49609 315.734 8.41797 315.281 8.41797C314.906 8.41797 314.582 8.48438 314.309 8.61719C314.035 8.74219 313.824 8.91406 313.676 9.13281C313.535 9.34375 313.465 9.57812 313.465 9.83594C313.465 10.0312 313.504 10.207 313.582 10.3633C313.668 10.5117 313.805 10.6484 313.992 10.7734C314.18 10.8984 314.422 11.0156 314.719 11.125C315.023 11.2266 315.398 11.3203 315.844 11.4062C316.758 11.5938 317.574 11.8398 318.293 12.1445C319.012 12.4414 319.582 12.8477 320.004 13.3633C320.426 13.8711 320.637 14.5391 320.637 15.3672C320.637 15.9297 320.512 16.4453 320.262 16.9141C320.012 17.3828 319.652 17.793 319.184 18.1445C318.715 18.4883 318.152 18.7578 317.496 18.9531C316.848 19.1406 316.117 19.2344 315.305 19.2344C314.125 19.2344 313.125 19.0234 312.305 18.6016C311.492 18.1797 310.875 17.6445 310.453 16.9961C310.039 16.3398 309.832 15.668 309.832 14.9805H313.031C313.047 15.4414 313.164 15.8125 313.383 16.0938C313.609 16.375 313.895 16.5781 314.238 16.7031C314.59 16.8281 314.969 16.8906 315.375 16.8906C315.812 16.8906 316.176 16.832 316.465 16.7148C316.754 16.5898 316.973 16.4258 317.121 16.2227C317.277 16.0117 317.355 15.7695 317.355 15.4961ZM328.664 19.2344C327.68 19.2344 326.797 19.0781 326.016 18.7656C325.234 18.4453 324.57 18.0039 324.023 17.4414C323.484 16.8789 323.07 16.2266 322.781 15.4844C322.492 14.7344 322.348 13.9375 322.348 13.0938V12.625C322.348 11.6641 322.484 10.7852 322.758 9.98828C323.031 9.19141 323.422 8.5 323.93 7.91406C324.445 7.32812 325.07 6.87891 325.805 6.56641C326.539 6.24609 327.367 6.08594 328.289 6.08594C329.188 6.08594 329.984 6.23438 330.68 6.53125C331.375 6.82812 331.957 7.25 332.426 7.79688C332.902 8.34375 333.262 9 333.504 9.76562C333.746 10.5234 333.867 11.3672 333.867 12.2969V13.7031H323.789V11.4531H330.551V11.1953C330.551 10.7266 330.465 10.3086 330.293 9.94141C330.129 9.56641 329.879 9.26953 329.543 9.05078C329.207 8.83203 328.777 8.72266 328.254 8.72266C327.809 8.72266 327.426 8.82031 327.105 9.01562C326.785 9.21094 326.523 9.48438 326.32 9.83594C326.125 10.1875 325.977 10.6016 325.875 11.0781C325.781 11.5469 325.734 12.0625 325.734 12.625V13.0938C325.734 13.6016 325.805 14.0703 325.945 14.5C326.094 14.9297 326.301 15.3008 326.566 15.6133C326.84 15.9258 327.168 16.168 327.551 16.3398C327.941 16.5117 328.383 16.5977 328.875 16.5977C329.484 16.5977 330.051 16.4805 330.574 16.2461C331.105 16.0039 331.562 15.6406 331.945 15.1562L333.586 16.9375C333.32 17.3203 332.957 17.6875 332.496 18.0391C332.043 18.3906 331.496 18.6797 330.855 18.9062C330.215 19.125 329.484 19.2344 328.664 19.2344ZM338.988 16.1523L338.977 18.4141C338.977 19.2812 338.758 20.1562 338.32 21.0391C337.891 21.9219 337.344 22.6445 336.68 23.207L334.922 22.3047C335.117 21.9453 335.309 21.5859 335.496 21.2266C335.684 20.8672 335.84 20.4727 335.965 20.043C336.09 19.6133 336.152 19.125 336.152 18.5781V16.1523H338.988ZM354.516 16.1406V10.4922C354.516 10.0859 354.449 9.73828 354.316 9.44922C354.184 9.15234 353.977 8.92188 353.695 8.75781C353.422 8.59375 353.066 8.51172 352.629 8.51172C352.254 8.51172 351.93 8.57812 351.656 8.71094C351.383 8.83594 351.172 9.01953 351.023 9.26172C350.875 9.49609 350.801 9.77344 350.801 10.0938H347.426C347.426 9.55469 347.551 9.04297 347.801 8.55859C348.051 8.07422 348.414 7.64844 348.891 7.28125C349.367 6.90625 349.934 6.61328 350.59 6.40234C351.254 6.19141 351.996 6.08594 352.816 6.08594C353.801 6.08594 354.676 6.25 355.441 6.57812C356.207 6.90625 356.809 7.39844 357.246 8.05469C357.691 8.71094 357.914 9.53125 357.914 10.5156V15.9414C357.914 16.6367 357.957 17.207 358.043 17.6523C358.129 18.0898 358.254 18.4727 358.418 18.8008V19H355.008C354.844 18.6562 354.719 18.2266 354.633 17.7109C354.555 17.1875 354.516 16.6641 354.516 16.1406ZM354.961 11.2773L354.984 13.1875H353.098C352.652 13.1875 352.266 13.2383 351.938 13.3398C351.609 13.4414 351.34 13.5859 351.129 13.7734C350.918 13.9531 350.762 14.1641 350.66 14.4062C350.566 14.6484 350.52 14.9141 350.52 15.2031C350.52 15.4922 350.586 15.7539 350.719 15.9883C350.852 16.2148 351.043 16.3945 351.293 16.5273C351.543 16.6523 351.836 16.7148 352.172 16.7148C352.68 16.7148 353.121 16.6133 353.496 16.4102C353.871 16.207 354.16 15.957 354.363 15.6602C354.574 15.3633 354.684 15.082 354.691 14.8164L355.582 16.2461C355.457 16.5664 355.285 16.8984 355.066 17.2422C354.855 17.5859 354.586 17.9102 354.258 18.2148C353.93 18.5117 353.535 18.7578 353.074 18.9531C352.613 19.1406 352.066 19.2344 351.434 19.2344C350.629 19.2344 349.898 19.0742 349.242 18.7539C348.594 18.4258 348.078 17.9766 347.695 17.4062C347.32 16.8281 347.133 16.1719 347.133 15.4375C347.133 14.7734 347.258 14.1836 347.508 13.668C347.758 13.1523 348.125 12.7188 348.609 12.3672C349.102 12.0078 349.715 11.7383 350.449 11.5586C351.184 11.3711 352.035 11.2773 353.004 11.2773H354.961ZM368.004 16.2344V1H371.402V19H368.344L368.004 16.2344ZM359.988 12.8125V12.5664C359.988 11.5977 360.098 10.7188 360.316 9.92969C360.535 9.13281 360.855 8.44922 361.277 7.87891C361.699 7.30859 362.219 6.86719 362.836 6.55469C363.453 6.24219 364.156 6.08594 364.945 6.08594C365.688 6.08594 366.336 6.24219 366.891 6.55469C367.453 6.86719 367.93 7.3125 368.32 7.89062C368.719 8.46094 369.039 9.13672 369.281 9.91797C369.523 10.6914 369.699 11.5391 369.809 12.4609V13C369.699 13.8828 369.523 14.7031 369.281 15.4609C369.039 16.2188 368.719 16.8828 368.32 17.4531C367.93 18.0156 367.453 18.4531 366.891 18.7656C366.328 19.0781 365.672 19.2344 364.922 19.2344C364.133 19.2344 363.43 19.0742 362.812 18.7539C362.203 18.4336 361.688 17.9844 361.266 17.4062C360.852 16.8281 360.535 16.1484 360.316 15.3672C360.098 14.5859 359.988 13.7344 359.988 12.8125ZM363.363 12.5664V12.8125C363.363 13.3359 363.402 13.8242 363.48 14.2773C363.566 14.7305 363.703 15.1328 363.891 15.4844C364.086 15.8281 364.336 16.0977 364.641 16.293C364.953 16.4805 365.332 16.5742 365.777 16.5742C366.355 16.5742 366.832 16.4453 367.207 16.1875C367.582 15.9219 367.867 15.5586 368.062 15.0977C368.266 14.6367 368.383 14.1055 368.414 13.5039V11.9688C368.391 11.4766 368.32 11.0352 368.203 10.6445C368.094 10.2461 367.93 9.90625 367.711 9.625C367.5 9.34375 367.234 9.125 366.914 8.96875C366.602 8.8125 366.23 8.73438 365.801 8.73438C365.363 8.73438 364.988 8.83594 364.676 9.03906C364.363 9.23438 364.109 9.50391 363.914 9.84766C363.727 10.1914 363.586 10.5977 363.492 11.0664C363.406 11.5273 363.363 12.0273 363.363 12.5664ZM381.527 16.2344V1H384.926V19H381.867L381.527 16.2344ZM373.512 12.8125V12.5664C373.512 11.5977 373.621 10.7188 373.84 9.92969C374.059 9.13281 374.379 8.44922 374.801 7.87891C375.223 7.30859 375.742 6.86719 376.359 6.55469C376.977 6.24219 377.68 6.08594 378.469 6.08594C379.211 6.08594 379.859 6.24219 380.414 6.55469C380.977 6.86719 381.453 7.3125 381.844 7.89062C382.242 8.46094 382.562 9.13672 382.805 9.91797C383.047 10.6914 383.223 11.5391 383.332 12.4609V13C383.223 13.8828 383.047 14.7031 382.805 15.4609C382.562 16.2188 382.242 16.8828 381.844 17.4531C381.453 18.0156 380.977 18.4531 380.414 18.7656C379.852 19.0781 379.195 19.2344 378.445 19.2344C377.656 19.2344 376.953 19.0742 376.336 18.7539C375.727 18.4336 375.211 17.9844 374.789 17.4062C374.375 16.8281 374.059 16.1484 373.84 15.3672C373.621 14.5859 373.512 13.7344 373.512 12.8125ZM376.887 12.5664V12.8125C376.887 13.3359 376.926 13.8242 377.004 14.2773C377.09 14.7305 377.227 15.1328 377.414 15.4844C377.609 15.8281 377.859 16.0977 378.164 16.293C378.477 16.4805 378.855 16.5742 379.301 16.5742C379.879 16.5742 380.355 16.4453 380.73 16.1875C381.105 15.9219 381.391 15.5586 381.586 15.0977C381.789 14.6367 381.906 14.1055 381.938 13.5039V11.9688C381.914 11.4766 381.844 11.0352 381.727 10.6445C381.617 10.2461 381.453 9.90625 381.234 9.625C381.023 9.34375 380.758 9.125 380.438 8.96875C380.125 8.8125 379.754 8.73438 379.324 8.73438C378.887 8.73438 378.512 8.83594 378.199 9.03906C377.887 9.23438 377.633 9.50391 377.438 9.84766C377.25 10.1914 377.109 10.5977 377.016 11.0664C376.93 11.5273 376.887 12.0273 376.887 12.5664ZM393 12.7891V12.543C393 11.6133 393.133 10.7578 393.398 9.97656C393.664 9.1875 394.051 8.50391 394.559 7.92578C395.066 7.34766 395.691 6.89844 396.434 6.57812C397.176 6.25 398.027 6.08594 398.988 6.08594C399.949 6.08594 400.805 6.25 401.555 6.57812C402.305 6.89844 402.934 7.34766 403.441 7.92578C403.957 8.50391 404.348 9.1875 404.613 9.97656C404.879 10.7578 405.012 11.6133 405.012 12.543V12.7891C405.012 13.7109 404.879 14.5664 404.613 15.3555C404.348 16.1367 403.957 16.8203 403.441 17.4062C402.934 17.9844 402.309 18.4336 401.566 18.7539C400.824 19.0742 399.973 19.2344 399.012 19.2344C398.051 19.2344 397.195 19.0742 396.445 18.7539C395.703 18.4336 395.074 17.9844 394.559 17.4062C394.051 16.8203 393.664 16.1367 393.398 15.3555C393.133 14.5664 393 13.7109 393 12.7891ZM396.375 12.543V12.7891C396.375 13.3203 396.422 13.8164 396.516 14.2773C396.609 14.7383 396.758 15.1445 396.961 15.4961C397.172 15.8398 397.445 16.1094 397.781 16.3047C398.117 16.5 398.527 16.5977 399.012 16.5977C399.48 16.5977 399.883 16.5 400.219 16.3047C400.555 16.1094 400.824 15.8398 401.027 15.4961C401.23 15.1445 401.379 14.7383 401.473 14.2773C401.574 13.8164 401.625 13.3203 401.625 12.7891V12.543C401.625 12.0273 401.574 11.543 401.473 11.0898C401.379 10.6289 401.227 10.2227 401.016 9.87109C400.812 9.51172 400.543 9.23047 400.207 9.02734C399.871 8.82422 399.465 8.72266 398.988 8.72266C398.512 8.72266 398.105 8.82422 397.77 9.02734C397.441 9.23047 397.172 9.51172 396.961 9.87109C396.758 10.2227 396.609 10.6289 396.516 11.0898C396.422 11.543 396.375 12.0273 396.375 12.543ZM410.391 9.02734V19H407.016V6.32031H410.18L410.391 9.02734ZM409.898 12.2148H408.984C408.984 11.2773 409.105 10.4336 409.348 9.68359C409.59 8.92578 409.93 8.28125 410.367 7.75C410.805 7.21094 411.324 6.80078 411.926 6.51953C412.535 6.23047 413.215 6.08594 413.965 6.08594C414.559 6.08594 415.102 6.17188 415.594 6.34375C416.086 6.51562 416.508 6.78906 416.859 7.16406C417.219 7.53906 417.492 8.03516 417.68 8.65234C417.875 9.26953 417.973 10.0234 417.973 10.9141V19H414.574V10.9023C414.574 10.3398 414.496 9.90234 414.34 9.58984C414.184 9.27734 413.953 9.05859 413.648 8.93359C413.352 8.80078 412.984 8.73438 412.547 8.73438C412.094 8.73438 411.699 8.82422 411.363 9.00391C411.035 9.18359 410.762 9.43359 410.543 9.75391C410.332 10.0664 410.172 10.4336 410.062 10.8555C409.953 11.2773 409.898 11.7305 409.898 12.2148ZM426.375 19.2344C425.391 19.2344 424.508 19.0781 423.727 18.7656C422.945 18.4453 422.281 18.0039 421.734 17.4414C421.195 16.8789 420.781 16.2266 420.492 15.4844C420.203 14.7344 420.059 13.9375 420.059 13.0938V12.625C420.059 11.6641 420.195 10.7852 420.469 9.98828C420.742 9.19141 421.133 8.5 421.641 7.91406C422.156 7.32812 422.781 6.87891 423.516 6.56641C424.25 6.24609 425.078 6.08594 426 6.08594C426.898 6.08594 427.695 6.23438 428.391 6.53125C429.086 6.82812 429.668 7.25 430.137 7.79688C430.613 8.34375 430.973 9 431.215 9.76562C431.457 10.5234 431.578 11.3672 431.578 12.2969V13.7031H421.5V11.4531H428.262V11.1953C428.262 10.7266 428.176 10.3086 428.004 9.94141C427.84 9.56641 427.59 9.26953 427.254 9.05078C426.918 8.83203 426.488 8.72266 425.965 8.72266C425.52 8.72266 425.137 8.82031 424.816 9.01562C424.496 9.21094 424.234 9.48438 424.031 9.83594C423.836 10.1875 423.688 10.6016 423.586 11.0781C423.492 11.5469 423.445 12.0625 423.445 12.625V13.0938C423.445 13.6016 423.516 14.0703 423.656 14.5C423.805 14.9297 424.012 15.3008 424.277 15.6133C424.551 15.9258 424.879 16.168 425.262 16.3398C425.652 16.5117 426.094 16.5977 426.586 16.5977C427.195 16.5977 427.762 16.4805 428.285 16.2461C428.816 16.0039 429.273 15.6406 429.656 15.1562L431.297 16.9375C431.031 17.3203 430.668 17.6875 430.207 18.0391C429.754 18.3906 429.207 18.6797 428.566 18.9062C427.926 19.125 427.195 19.2344 426.375 19.2344ZM433.664 17.3711C433.664 16.8711 433.836 16.4531 434.18 16.1172C434.531 15.7812 434.996 15.6133 435.574 15.6133C436.152 15.6133 436.613 15.7812 436.957 16.1172C437.309 16.4531 437.484 16.8711 437.484 17.3711C437.484 17.8711 437.309 18.2891 436.957 18.625C436.613 18.9609 436.152 19.1289 435.574 19.1289C434.996 19.1289 434.531 18.9609 434.18 18.625C433.836 18.2891 433.664 17.8711 433.664 17.3711Z" fill="#32394B"/>
</svg>
